<?xml version="1.0" standalone="no"?>
<!DOCTYPE svg PUBLIC "-//W3C//DTD SVG 20010904//EN"
 "http://www.w3.org/TR/2001/REC-SVG-20010904/DTD/svg10.dtd">
<svg version="1.0" xmlns="http://www.w3.org/2000/svg"
 width="96.000000pt" height="96.000000pt" viewBox="0 0 96.000000 96.000000"
 preserveAspectRatio="xMidYMid meet">
<metadata>
Created by potrace 1.14, written by Peter Selinger 2001-2017
</metadata>
<g transform="translate(0.000000,96.000000) scale(0.100000,-0.100000)"
fill="#000000" stroke="none">
<path d="M417 878 c-16 -10 -19 -412 -3 -431 6 -8 36 -24 66 -37 30 -13 69
-29 85 -36 l30 -12 0 253 c0 139 -3 256 -6 260 -10 9 -158 12 -172 3z"/>
<path d="M157 763 c-2 -5 -3 -84 -3 -177 l1 -170 -57 -24 -57 -25 -3 -76 c-5
-121 1 -191 16 -191 8 0 37 16 66 35 33 22 64 35 84 35 18 0 84 -19 147 -41
174 -63 179 -64 247 -18 76 50 304 226 314 241 23 36 -5 94 -53 110 -12 5 -15
24 -14 107 1 56 -2 106 -5 111 -4 7 -42 10 -96 8 l-89 -3 -3 -164 c-1 -91 -7
-170 -12 -176 -6 -7 -6 -15 1 -22 19 -19 6 -75 -24 -97 l-27 -20 -118 33
c-125 36 -152 47 -152 60 0 20 31 17 135 -15 117 -36 149 -37 158 -4 7 26 -8
35 -148 96 -60 26 -112 49 -115 51 -2 2 -5 77 -6 166 -1 89 -2 165 -3 170 0 4
-41 7 -90 7 -50 0 -92 -3 -94 -7z m151 -178 l1 -145 -44 0 c-24 0 -50 -3 -59
-6 -14 -5 -16 11 -16 145 l0 151 59 0 59 0 0 -145z m498 -35 c0 -54 -5 -103
-11 -108 -5 -5 -31 -22 -57 -37 l-48 -27 0 136 0 136 59 0 58 0 -1 -100z"/>
</g>
</svg>
